PathFileType	4	(X/Y/Z)	C:\Users\Basilio\Documents\Thesis Gigler\squatting_fais\c3dfiles\077\SLS_back_pre1\markers_experimental.trc
DataRate	CameraRate	NumFrames	NumMarkers	Units	OrigDataRate	OrigDataStartFrame	OrigNumFrames
200.000000	200.000000	4	60	mm	200.000000	992	1588
Frame#	Time	FHD			RBHD			C7			T10			CLAV			LSHO			LUUPA			LMUPA			LDUPA			LLEP			LMEP			LRAD			LUL			LRFIN			RSHO			RUPA1			RMUPA			RDUPA			RLEP			RMEP			RRAD			RUL			RUFIN			LASI			RASI			USACR			LSACR			RSACR			LTHI1			LTHI2			LTHI3			LTHI4			LLFC			LMFC			LTIB1			LTIB2			LTIB3			LTIB4			LLMAL			LHEE			LMT1			LMT2			LMT5			RTHI			RTHI2			RTHI3			RTHI4			RLFC			RMFC			RTIB1			RTIB2			RTIB3			RTIB4			RLMAL			RMMAL			RHEE			RMT1			RMT2			RMT5			LBHD			
		X1	Y1	Z1	X2	Y2	Z2	X3	Y3	Z3	X4	Y4	Z4	X5	Y5	Z5	X6	Y6	Z6	X7	Y7	Z7	X8	Y8	Z8	X9	Y9	Z9	X10	Y10	Z10	X11	Y11	Z11	X12	Y12	Z12	X13	Y13	Z13	X14	Y14	Z14	X15	Y15	Z15	X16	Y16	Z16	X17	Y17	Z17	X18	Y18	Z18	X19	Y19	Z19	X20	Y20	Z20	X21	Y21	Z21	X22	Y22	Z22	X23	Y23	Z23	X24	Y24	Z24	X25	Y25	Z25	X26	Y26	Z26	X27	Y27	Z27	X28	Y28	Z28	X29	Y29	Z29	X30	Y30	Z30	X31	Y31	Z31	X32	Y32	Z32	X33	Y33	Z33	X34	Y34	Z34	X35	Y35	Z35	X36	Y36	Z36	X37	Y37	Z37	X38	Y38	Z38	X39	Y39	Z39	X40	Y40	Z40	X41	Y41	Z41	X42	Y42	Z42	X43	Y43	Z43	X44	Y44	Z44	X45	Y45	Z45	X46	Y46	Z46	X47	Y47	Z47	X48	Y48	Z48	X49	Y49	Z49	X50	Y50	Z50	X51	Y51	Z51	X52	Y52	Z52	X53	Y53	Z53	X54	Y54	Z54	X55	Y55	Z55	X56	Y56	Z56	X57	Y57	Z57	X58	Y58	Z58	X59	Y59	Z59	X60	Y60	Z60	

993	4.96	-17.72384643554688	1567.465942382813	-1107.585083007813	-162.9132385253907	1456.732177734375	-1027.016479492188	-209.8005676269532	1357.453491210938	-1106.1865234375	-372.9839782714844	1093.189575195313	-1045.743041992188	-75.0789031982422	1250.423217773438	-1095.858032226563	-78.80403900146486	1301.538330078125	-1260.682373046875	69.67898559570314	1233.819946289063	-1364.965942382813	102.5437545776367	1258.60009765625	-1336.65771484375	138.036849975586	1221.910522460938	-1370.820434570313	203.4895172119141	1223.757934570313	-1365.36181640625	199.6910095214844	1152.363159179688	-1336.042846679688	493.7868041992189	1222.911376953125	-1240.745361328125	502.1398315429689	1225.75634765625	-1320.463500976563	591.8081665039064	1245.29833984375	-1245.820922851563	-73.89104461669923	1317.910400390625	-949.6013183593752	69.21023559570314	1267.136474609375	-827.4724121093752	100.4081268310547	1285.28955078125	-860.8485107421877	138.1994781494141	1255.814575195313	-822.865905761719	204.4871063232422	1250.065795898438	-831.4328613281252	195.7476348876954	1173.850708007813	-852.3272705078127	483.7320556640626	1216.0888671875	-941.0831298828127	497.9782714843751	1235.157104492188	-863.7148437500002	577.4927978515626	1238.08251953125	-945.638610839844	nan	nan	nan	-323.9506225585938	831.7387695312502	-911.882995605469	-440.9539489746095	1015.827941894531	-1035.866333007813	-464.7596740722657	1003.197570800781	-1068.044067382813	-467.177947998047	989.3524169921877	-1013.558044433594	-299.4862976074219	718.8236694335939	-1251.8232421875	-226.4099121093751	675.3964233398439	-1243.312255859375	-189.8289337158203	705.3858032226564	-1232.825439453125	-219.4497680664063	616.1156616210939	-1231.56298828125	-120.1719512939453	507.7818603515626	-1183.731201171875	-123.7235488891602	505.8120422363282	-1056.39453125	-165.2481384277344	304.7774963378907	-1078.767333984375	-207.3957977294922	263.1236572265626	-1146.237182617188	-184.1938934326172	256.0244445800782	-1105.8525390625	-227.8770446777344	197.8560485839844	-1064.211669921875	-330.9773559570313	106.6298141479492	-1103.10693359375	-398.182830810547	83.45787048339845	-1046.483032226563	-182.7990875244141	56.24383544921876	-1068.031372070313	-194.1531829833985	41.95648193359376	-1115.826171875	-302.9599914550782	125.4143753051758	-1017.479919433594	-410.395721435547	552.6375732421876	-838.6733398437502	-366.0568847656251	498.9030151367189	-829.7304687500002	-332.9765930175782	499.7602539062501	-833.4436035156252	-395.9174804687501	422.9965820312501	-840.6445922851565	-409.7051696777345	389.1907653808595	-848.3604736328127	-384.6881713867189	351.0547790527344	-973.6116943359377	-526.7528686523439	355.1211242675782	-903.1459960937502	-593.8265991210939	438.2128295898439	-889.914245605469	-602.9483032226564	397.7591857910157	-911.5537719726565	-631.5829467773439	407.2018432617189	-963.2175903320315	-789.303649902344	519.4038696289064	-969.5534667968752	-763.2103271484376	489.2050781250001	-1054.365600585938	-769.7276611328127	589.2026367187501	-1023.70166015625	-894.8012695312502	404.000457763672	-1069.592407226563	-906.6315917968752	408.3677673339845	-1028.626220703125	-935.912536621094	436.6140747070314	-993.179382324219	-160.8181610107422	1458.645385742188	-1172.239624023438	
994	4.965	-18.401611328125	1569.760498046875	-1107.578247070313	-163.4708099365235	1458.674072265625	-1026.98095703125	-210.2154083251954	1359.236694335938	-1106.160522460938	-372.9617004394532	1094.879150390625	-1045.879516601563	-75.43563079833986	1252.516967773438	-1095.779174804688	-79.60964965820314	1303.477294921875	-1260.825439453125	69.46710205078126	1236.139038085938	-1364.909423828125	102.3340225219727	1260.573608398438	-1336.538208007813	137.4077758789063	1224.150390625	-1370.605346679688	203.3494720458985	1225.887939453125	-1364.984375	199.974594116211	1154.13671875	-1336.606079101563	493.648895263672	1225.074584960938	-1240.467041015625	502.3624267578126	1227.95068359375	-1320.333984375	591.4676513671876	1247.313720703125	-1245.6025390625	-74.29084777832033	1319.901611328125	-949.5296630859377	68.76374816894533	1269.159057617188	-827.410339355469	100.0759353637696	1287.374633789063	-860.7930297851565	137.7060546875	1257.91162109375	-822.8643798828127	204.200180053711	1252.552490234375	-831.3572387695315	195.4941864013672	1176.290283203125	-852.275329589844	482.6700439453126	1219.809448242188	-941.238220214844	497.6120910644532	1237.685546875	-863.537048339844	577.2078247070314	1240.718139648438	-945.4541015625002	nan	nan	nan	-323.8117980957032	833.2659912109377	-912.1257324218752	-441.0065002441407	1017.375915527344	-1036.042114257813	-464.7434082031251	1004.589233398438	-1068.09228515625	-467.0897521972657	990.7683105468752	-1013.663024902344	-299.4856872558594	719.5957031250001	-1251.861206054688	-226.9120025634766	676.1928100585939	-1243.478881835938	-189.716552734375	705.9598999023439	-1232.70263671875	-219.9755859375001	617.0545043945314	-1231.542602539063	-120.6234970092774	508.0389709472657	-1183.784423828125	-124.3021850585938	506.2302856445314	-1056.451049804688	-165.5557250976563	305.5372924804688	-1078.7822265625	-207.8789215087891	263.3502807617188	-1146.336181640625	-184.4233551025391	256.2192077636719	-1105.819091796875	-228.0406036376954	198.048568725586	-1064.3408203125	-330.2416992187501	106.3529891967774	-1102.975952148438	-398.1680603027345	83.44962310791017	-1046.515502929688	-182.9028472900391	56.35709762573244	-1068.078002929688	-194.1006164550782	41.96161270141602	-1115.811889648438	-303.0259399414063	125.4489364624024	-1017.535461425781	-409.9758605957032	554.2454833984376	-838.5989990234377	-365.6849670410157	500.5109863281251	-829.563659667969	-332.5270385742188	501.7648315429689	-832.9765625000002	-395.5597534179689	424.4453125000001	-840.412536621094	-409.2727050781251	390.7700805664064	-848.2456054687502	-383.9906005859376	352.5585937500001	-973.3739013671877	-526.1375732421876	356.3956298828126	-903.0332641601565	-593.2478637695314	439.7145996093751	-889.877380371094	-602.3614501953126	398.8040161132814	-911.7176513671877	-631.1723632812501	408.0999145507814	-963.4146118164065	-788.812927246094	520.4215698242189	-969.8125610351565	-762.5781250000001	490.1238098144532	-1054.857177734375	-769.4312744140627	590.0799560546876	-1024.172241210938	-894.3183593750002	405.5474548339845	-1069.466186523438	-906.0894775390627	409.3967895507814	-1028.892211914063	-935.263854980469	437.3660583496095	-993.5289306640627	-161.3933410644532	1460.993041992188	-1172.327270507813	
995	4.97	-18.88847160339356	1571.528076171875	-1107.591064453125	-164.099609375	1460.997924804688	-1027.155517578125	-210.7297821044922	1360.94482421875	-1106.143310546875	-373.2988586425782	1096.181518554688	-1045.902709960938	-75.88314056396486	1254.47412109375	-1095.84912109375	-79.51073455810548	1305.306518554688	-1260.736938476563	69.77724456787111	1238.78466796875	-1365.336669921875	102.5176467895508	1262.990966796875	-1336.72802734375	137.1698913574219	1226.307495117188	-1370.502807617188	202.6710968017579	1228.065673828125	-1364.907958984375	199.8719787597657	1156.320556640625	-1336.654663085938	493.177215576172	1227.375	-1240.355590820313	501.457489013672	1230.118286132813	-1320.0302734375	591.2764892578126	1249.539672851563	-1245.372802734375	-74.7666473388672	1322.015258789063	-949.6046142578127	68.12521362304689	1271.13818359375	-827.578552246094	99.57135009765628	1289.536376953125	-860.6983642578127	137.3011016845703	1260.023681640625	-822.7390747070315	203.4608612060547	1254.296875	-831.4130859375002	195.1014404296876	1178.342407226563	-852.296325683594	482.8871459960939	1221.437255859375	-941.2836914062502	497.1735229492189	1240.100219726563	-863.536315917969	576.8188476562501	1243.288330078125	-945.3721313476565	nan	nan	nan	-323.5586242675782	834.8670043945315	-912.088806152344	-440.9733276367189	1018.923950195313	-1036.051513671875	-464.7031250000001	1006.005798339844	-1068.2978515625	-467.0069274902345	992.372497558594	-1013.786254882813	-299.5329895019532	720.8602905273439	-1251.896728515625	-226.924301147461	676.6747436523439	-1243.412963867188	-189.5486450195313	706.5715332031251	-1232.67431640625	-220.1855010986329	617.6455078125001	-1231.416137695313	-121.5402450561524	508.5972595214845	-1183.806640625	-124.8305969238282	506.6140747070314	-1056.515625	-165.9901733398438	305.7182312011719	-1078.759033203125	-208.3461151123047	263.6239013671876	-1146.365600585938	-184.7536010742188	256.4924316406251	-1105.98388671875	-228.2240447998047	198.092758178711	-1064.47021484375	-330.2963867187501	106.3826751708985	-1103.00927734375	-398.1956176757814	83.46731567382814	-1046.499755859375	-182.730453491211	56.25534820556642	-1068.05419921875	-194.1075744628907	41.90887069702149	-1115.829833984375	-302.9809265136719	125.5855102539063	-1017.562377929688	-409.680389404297	555.8868408203126	-838.573181152344	-365.3475036621094	501.980438232422	-829.4384765625002	-331.9775085449219	503.6324768066407	-832.5191040039065	-395.0399475097657	426.0373840332032	-840.2423095703127	-408.7979736328126	392.2267150878907	-848.1749267578127	-385.197967529297	354.9764099121094	-974.346130371094	-525.6837158203126	357.6953735351563	-902.8406372070315	-593.0144653320314	440.8100891113282	-890.007019042969	-601.8665161132814	400.2112426757814	-911.8101196289065	-630.3621215820314	409.1868896484376	-963.608581542969	-788.3217773437502	521.4293212890626	-970.147888183594	-761.5432739257814	490.6628723144532	-1054.713256835938	-768.9824829101565	591.2155151367189	-1024.353393554688	-893.5780029296877	405.6766967773439	-1069.745361328125	-905.3638305664065	410.0070800781251	-1029.09228515625	-934.749206542969	438.1802368164064	-993.7681274414065	-161.9019012451172	1462.85205078125	-1172.475708007813	
996	4.975000000000001	-19.76568222045899	1573.867065429688	-1107.702758789063	-164.6456909179688	1462.942504882813	-1027.05712890625	-211.1886138916016	1362.995971679688	-1106.25537109375	-373.1899108886719	1098.025024414063	-1046.116455078125	-76.30057525634767	1256.533813476563	-1095.8095703125	-80.37033843994142	1307.406616210938	-1260.950561523438	69.28777313232423	1240.219848632813	-1364.861572265625	101.8705291748047	1264.731567382813	-1336.459716796875	137.0909881591797	1228.061645507813	-1370.304565429688	202.7431640625001	1229.936157226563	-1364.796142578125	199.3538970947266	1158.340576171875	-1336.46337890625	492.6286621093751	1229.521728515625	-1240.258911132813	501.1792907714845	1232.44970703125	-1319.909301757813	590.8801269531251	1251.682250976563	-1245.1259765625	-75.27012634277345	1323.90087890625	-949.5776977539065	67.85796356201173	1273.484497070313	-827.2883911132815	99.14162445068362	1291.53955078125	-860.6514892578127	136.836654663086	1262.068237304688	-822.8182373046877	203.0508270263672	1256.52392578125	-831.1836547851565	194.7720184326172	1180.427856445313	-852.333190917969	482.2514953613282	1224.102661132813	-941.1441040039065	496.7083740234376	1242.64501953125	-863.4280395507815	576.5631713867189	1245.832763671875	-945.2846679687502	nan	nan	nan	-323.3202209472657	836.5053710937502	-912.0466918945315	-440.9213256835939	1020.399108886719	-1036.2529296875	-464.6604919433595	1007.428100585938	-1068.339965820313	-467.0410766601564	993.5717773437502	-1013.95654296875	-299.3075561523438	721.7387084960939	-1251.855590820313	-227.0878295898438	677.4667358398439	-1243.333862304688	-189.6105499267578	707.1736450195314	-1232.765502929688	-220.7372283935547	618.6240234375001	-1231.412231445313	-122.4002075195313	509.1127014160157	-1183.911987304688	-125.4261779785157	507.0220642089845	-1056.545288085938	-166.5289611816407	305.4920349121094	-1078.674926757813	-208.8170776367188	263.9888305664063	-1146.503173828125	-185.2628784179688	256.9832458496094	-1106.25341796875	-228.4329071044922	198.1992187500001	-1064.6669921875	-330.3544006347657	106.4047393798828	-1103.03759765625	-398.1815185546876	83.49767303466798	-1046.532592773438	-182.9180145263672	56.40853500366212	-1068.161254882813	-194.0982666015626	41.8743019104004	-1115.817993164063	-303.0424194335938	125.5840454101563	-1017.634094238281	-409.426971435547	557.2485961914064	-838.275817871094	-364.7965087890626	503.6866760253907	-829.080017089844	-331.7829895019532	505.0033569335939	-832.7308349609377	-394.6083984375001	427.6084289550782	-840.0591430664065	-408.2440490722657	393.7195434570314	-847.946716308594	-382.5840454101563	355.4757995605469	-972.8208618164065	-524.9000244140626	359.2803039550782	-902.7595825195315	-592.3877563476564	442.3200683593751	-889.905212402344	-601.2823486328126	401.5610351562501	-911.6916503906252	-629.5463256835939	410.2220764160157	-963.613952636719	-787.7466430664065	522.4174194335939	-970.3375244140627	-760.8662719726564	491.499237060547	-1054.762939453125	-768.6999511718752	591.6989746093751	-1024.98974609375	-892.9196777343752	406.3421630859376	-1070.027099609375	-904.7712402343752	410.6202697753907	-1029.457275390625	-934.0921630859377	438.948211669922	-994.1191406250002	-162.4402313232422	1465.010009765625	-1172.401977539063	
